<?xml version="1.0" encoding="utf-8"?>
<!-- Generator: Adobe Illustrator 19.1.0, SVG Export Plug-In . SVG Version: 6.00 Build 0)  -->
<svg version="1.1" id="Laag_1" xmlns="http://www.w3.org/2000/svg" xmlns:xlink="http://www.w3.org/1999/xlink" x="0px" y="0px"
	 viewBox="0 0 800 800" style="enable-background:new 0 0 800 800;" xml:space="preserve">
<style type="text/css">
	.st0{fill:#FCC24F;}
	.st1{fill:#FFB600;}
	.st2{fill:#1A171B;}
</style>
<circle class="st0" cx="399.2" cy="400.2" r="309.9"/>
<path class="st0" d="M399.2,727.3c-180.3,0-327-146.7-327-327s146.7-327,327-327s327,146.7,327,327S579.5,727.3,399.2,727.3z
	 M399.2,107.5c-161.5,0-292.8,131.3-292.8,292.8S237.7,693,399.2,693C560.7,693,692,561.6,692,400.2S560.5,107.5,399.2,107.5z"/>
<circle class="st1" cx="399.2" cy="400.2" r="309.9"/>
<path class="st2" d="M399.2,728.2c-180.8,0-328-147.1-328-328c0-180.8,147.1-328,328-328c180.8,0,328,147.1,328,328
	C727.1,581.1,580,728.2,399.2,728.2z M399.2,108.3c-161,0-291.8,131-291.8,291.8c0,161,131,291.8,291.8,291.8
	c161,0,291.8-131,291.8-291.8S560.1,108.3,399.2,108.3z"/>
<path class="st2" d="M250.5,423.4c0,0-14.9-9.1-21.8-15.3c-11.7-10.5-20.9-23.6-23.7-27.7c-2.8-4.1-9-15.3-0.4-25
	c5.7-6.4,22.5-6,22.5-6s24.6-0.7,29.6-2.1c4.9-1.4,17.2-9.6,18.9-11.9c1.7-2.3,5.7-7.7,7.5-12.4c1.7-4.6,22.5-43.7,87.8-43.9
	c65.2-0.4,108.1,63.3,97.5,115.2c-6.6,32.1-20.4,42.1-24,45.6c-3.6,3.6-7.1,8.6-4.7,15.4s6,13.4,33,11.7
	c26.9-1.7,59.5-32.2,77.2-52.5c17.7-20.2,26.6-17.2,28.8-17.3c12.4-1.1,51.8,42.6,39.4,140.4s-48.9,114.5-64.8,122.6
	c-16,8.1-64.1,50.4-153.9,49.8c-89.9-0.5-120.3-36.4-149.6-49.7s-80.1-54.2-50.1-128.2c13.8-33.9,52.1-51,59.5-55.8
	c7.5-4.8,18.6-9.6,19.7-16.5s1.2-13.5-1.2-17.5c-2.5-3.9-14.9-11.3-17.3-12.8C257.8,428.4,250.5,423.4,250.5,423.4z"/>
</svg>
